<?xml version="1.0" standalone="no"?>
<!DOCTYPE svg PUBLIC "-//W3C//DTD SVG 20010904//EN"
 "http://www.w3.org/TR/2001/REC-SVG-20010904/DTD/svg10.dtd">
<svg version="1.0" xmlns="http://www.w3.org/2000/svg"
 width="980.000000pt" height="694.000000pt" viewBox="0 0 980.000000 694.000000"
 preserveAspectRatio="xMidYMid meet">
<metadata>
Created by potrace 1.16, written by Peter Selinger 2001-2019
</metadata>
<g transform="translate(0.000000,694.000000) scale(0.100000,-0.100000)"
fill="#000000" stroke="none">
<path d="M2895 6910 c-88 -23 -419 -138 -810 -282 -431 -158 -527 -197 -557
-226 -41 -38 -100 -167 -163 -357 -56 -167 -143 -372 -249 -583 -409 -816
-805 -1916 -981 -2727 -109 -504 -141 -791 -132 -1200 8 -314 17 -400 63 -574
93 -356 239 -605 462 -790 152 -125 235 -160 384 -161 140 0 180 18 373 174
185 148 266 216 1030 866 357 304 568 461 689 515 129 57 97 55 1210 65 1204
11 2322 0 2476 -25 124 -19 241 -77 370 -181 182 -148 507 -420 835 -699 701
-596 782 -662 847 -687 100 -38 300 -33 382 9 91 47 266 210 359 335 146 195
251 473 294 782 22 150 24 653 5 851 -46 463 -141 910 -316 1490 -168 559
-435 1250 -716 1860 -169 367 -207 459 -280 670 -71 208 -124 328 -160 360
-36 33 -394 175 -927 369 -398 145 -452 158 -607 154 -119 -3 -123 -4 -206
-44 -47 -23 -156 -85 -243 -137 l-158 -95 -1247 5 -1247 6 -140 78 c-354 197
-461 227 -640 179z m455 -446 l265 -132 291 -8 291 -7 18 -81 c36 -171 106
-300 216 -399 197 -179 470 -216 707 -97 205 104 342 286 372 498 l12 82 297
0 c163 0 327 5 366 10 82 12 204 68 416 191 109 62 153 83 179 82 46 0 377
-112 890 -298 223 -81 417 -151 431 -157 24 -8 28 -17 44 -111 35 -205 66
-289 248 -677 432 -924 730 -1725 912 -2450 178 -709 233 -1313 159 -1750 -30
-176 -131 -423 -240 -587 -87 -130 -263 -266 -325 -250 -13 4 -73 48 -134 99
-246 204 -549 461 -895 757 -604 518 -686 580 -896 674 -221 100 -244 100
-2269 94 l-1630 -4 -115 -45 c-197 -77 -284 -127 -435 -249 -186 -150 -428
-353 -840 -703 -617 -525 -733 -616 -781 -616 -79 0 -289 189 -379 341 -99
168 -156 330 -197 557 -20 111 -22 161 -23 397 0 200 5 307 18 415 111 894
516 2108 1104 3310 182 372 206 434 263 691 l21 97 162 62 c169 64 1028 377
1107 402 34 11 53 12 75 5 17 -6 149 -70 295 -143z m1845 -156 c12 -11 -32
-139 -64 -189 -54 -86 -138 -129 -250 -129 -138 0 -243 59 -299 170 -18 36
-33 83 -35 104 -2 34 1 41 23 47 31 10 616 7 625 -3z"/>
<path d="M7190 5866 c-61 -21 -68 -27 -117 -94 -65 -91 -80 -149 -63 -255 14
-94 53 -162 114 -204 60 -41 100 -53 203 -60 70 -5 87 -3 126 16 69 33 133 95
164 159 24 48 28 69 28 138 0 73 -4 88 -35 150 -78 152 -243 211 -420 150z"/>
<path d="M2230 5707 c-143 -34 -307 -133 -415 -249 -263 -285 -296 -666 -84
-982 289 -431 847 -500 1217 -151 212 199 309 473 257 720 -65 308 -307 575
-590 651 -80 22 -311 28 -385 11z m309 -322 c218 -52 351 -231 351 -475 0
-292 -198 -485 -495 -483 -205 2 -373 107 -436 273 -10 28 -24 92 -29 143 -26
232 52 401 229 496 110 58 253 76 380 46z"/>
<path d="M6565 5220 c-88 -29 -147 -77 -181 -147 -26 -52 -29 -68 -28 -153 0
-150 48 -236 160 -291 58 -29 75 -32 152 -33 76 0 95 3 145 27 233 115 238
458 7 575 -86 43 -170 51 -255 22z"/>
<path d="M7880 5223 c-145 -51 -231 -187 -216 -342 16 -159 104 -254 258 -281
114 -20 246 22 302 94 58 77 71 115 71 216 0 87 -3 100 -30 148 -79 144 -244
215 -385 165z"/>
<path d="M7221 4564 c-141 -51 -215 -152 -214 -294 0 -94 14 -145 56 -207 69
-99 235 -148 371 -109 73 21 145 86 183 165 37 75 39 189 5 266 -29 63 -92
129 -157 162 -64 34 -178 41 -244 17z"/>
<path d="M3475 4463 c-33 -9 -133 -81 -159 -116 -41 -53 -55 -134 -63 -338
l-6 -187 -206 -4 c-194 -3 -209 -5 -255 -27 -28 -14 -71 -45 -97 -70 -68 -67
-80 -112 -86 -347 -9 -294 8 -354 125 -466 l61 -58 229 0 229 0 6 -197 c7
-261 13 -281 118 -386 l78 -79 288 4 c278 3 290 4 335 26 60 30 130 107 148
163 9 29 16 116 20 254 l5 210 225 5 c222 5 226 5 271 32 67 40 115 98 136
165 15 48 18 96 18 288 0 251 -4 277 -58 352 -17 24 -50 58 -75 77 -51 41 -66
43 -332 54 l-185 7 -5 210 c-6 249 -11 264 -114 365 l-67 65 -282 2 c-155 1
-291 -1 -302 -4z m436 -563 c9 -356 17 -377 160 -391 46 -4 175 -8 287 -8
l202 -1 0 -170 0 -170 -253 0 c-242 0 -255 -1 -297 -22 -87 -45 -98 -88 -99
-373 -1 -82 -4 -174 -7 -202 l-7 -53 -153 0 -154 0 -1 133 c-1 202 -15 419
-30 450 -26 57 -47 62 -349 67 l-275 5 -3 168 -2 167 242 0 c287 1 318 5 365
53 48 47 52 78 53 365 l0 243 158 -3 157 -3 6 -255z"/>
<path d="M6005 4069 c-267 -65 -515 -296 -611 -567 -21 -59 -24 -85 -24 -225
0 -178 10 -224 81 -355 110 -206 284 -354 502 -428 281 -96 578 -10 808 232
104 111 173 236 210 383 18 70 20 104 16 190 -6 130 -24 199 -82 316 -169 343
-556 538 -900 454z m297 -320 c125 -27 257 -128 311 -239 61 -125 60 -349 -2
-475 -36 -72 -110 -151 -179 -188 -136 -74 -364 -77 -501 -8 -71 36 -148 117
-186 194 -48 98 -57 157 -46 295 8 97 14 123 41 179 57 116 165 201 300 237
67 18 190 20 262 5z"/>
</g>
</svg>
