<?xml version="1.0" standalone="no"?>
<!DOCTYPE svg PUBLIC "-//W3C//DTD SVG 20010904//EN"
 "http://www.w3.org/TR/2001/REC-SVG-20010904/DTD/svg10.dtd">
<svg version="1.0" xmlns="http://www.w3.org/2000/svg"
 width="197.000000pt" height="255.000000pt" viewBox="0 0 197.000000 255.000000"
 preserveAspectRatio="xMidYMid meet">
<metadata>
Created by potrace 1.16, written by Peter Selinger 2001-2019
</metadata>
<g transform="translate(0.000000,255.000000) scale(0.100000,-0.100000)"
fill="#000000" stroke="none">
<path d="M1258 2016 c-15 -8 -38 -22 -50 -30 -19 -13 -58 -16 -234 -16 -205 0
-214 1 -266 25 -29 14 -63 25 -75 25 -39 0 -257 -90 -284 -118 -15 -15 -61
-99 -102 -187 -126 -269 -180 -462 -181 -645 0 -164 57 -249 172 -258 l55 -5
143 147 143 146 387 0 387 0 148 -146 149 -147 44 5 c86 10 137 75 157 199 26
161 -47 465 -177 733 -86 179 -71 164 -229 228 -77 32 -144 57 -150 58 -5 0
-22 -7 -37 -14z m-245 -118 c38 -44 2 -118 -57 -118 -34 0 -66 36 -66 74 0 68
78 96 123 44z m-313 -68 l85 -90 172 0 171 0 85 90 c60 64 91 90 108 90 36 0
272 -80 291 -99 9 -9 38 -63 63 -121 204 -455 218 -821 33 -871 l-39 -10 -157
150 -157 150 -392 1 -391 0 -141 -146 -140 -147 -55 5 c-41 3 -63 11 -82 29
-95 89 -97 285 -4 569 46 143 144 361 173 388 18 16 244 97 282 101 5 1 48
-40 95 -89z"/>
<path d="M1359 1811 c-37 -37 -37 -65 1 -103 26 -25 36 -29 63 -24 65 13 89
85 42 131 -33 33 -70 32 -106 -4z"/>
<path d="M444 1786 c-17 -8 -44 -31 -60 -52 -25 -32 -29 -47 -29 -98 0 -73 25
-115 85 -146 141 -72 291 79 218 220 -40 77 -134 111 -214 76z"/>
<path d="M1236 1699 c-20 -16 -26 -29 -26 -59 0 -30 6 -43 26 -59 15 -12 37
-21 49 -21 12 0 34 9 49 21 20 16 26 29 26 59 0 30 -6 43 -26 59 -15 12 -37
21 -49 21 -12 0 -34 -9 -49 -21z"/>
<path d="M1485 1695 c-16 -15 -25 -36 -25 -55 0 -38 39 -80 74 -80 32 0 73 37
82 72 5 22 0 34 -24 58 -37 37 -74 39 -107 5z"/>
<path d="M1361 1573 c-56 -47 -24 -133 49 -133 71 0 104 76 55 125 -29 30 -74
33 -104 8z"/>
<path d="M1150 1509 c-117 -49 -134 -207 -30 -277 29 -20 45 -23 90 -20 34 2
66 12 83 23 31 23 67 90 67 126 0 35 -40 109 -71 132 -31 23 -104 31 -139 16z"/>
<path d="M700 1460 c-11 -11 -20 -28 -20 -39 0 -13 -9 -20 -30 -24 -21 -5 -31
-14 -36 -32 -9 -35 1 -55 35 -68 19 -7 32 -21 38 -41 12 -41 54 -57 83 -31 11
10 20 28 20 40 0 17 7 24 30 29 63 12 64 97 1 109 -22 5 -31 12 -31 26 0 20
-34 51 -57 51 -7 0 -22 -9 -33 -20z"/>
</g>
</svg>
